<svg width="171" height="40" viewBox="0 0 171 40" fill="none" xmlns="http://www.w3.org/2000/svg">
<rect width="40" height="40" rx="20" fill="white"/>
<path d="M12.0998 9.80005H15.0998C15.6031 9.80005 16.1625 9.97027 16.5461 10.3538L16.5656 10.3733L16.5881 10.3909C16.9682 10.6952 17.2188 11.1686 17.3049 11.7708C17.4089 12.6971 17.6171 13.6383 18.0353 14.5852V14.5862C18.1892 14.9711 18.1966 15.3669 18.1096 15.802C18.0349 16.1755 17.8041 16.5826 17.5344 16.9504L16.6926 17.6057L16.343 17.8772L16.5715 18.2571C17.8137 20.3274 19.5725 22.0862 21.6428 23.3284L21.9777 23.5295L22.2531 23.2532L23.1535 22.3538C23.4742 22.0331 23.777 21.8774 24.2824 21.7932L24.2902 21.7922L24.298 21.7903C24.7332 21.7033 25.129 21.7106 25.5139 21.8645L25.5275 21.8694L25.5422 21.8743C26.4648 22.1818 27.2832 22.3863 28.1916 22.5881L28.2101 22.592L28.2297 22.595C28.8319 22.6811 29.3053 22.9325 29.6096 23.3127C29.9587 23.7493 30.2004 24.3423 30.2004 24.8V27.8C30.2004 28.1099 30.124 28.436 30.0373 28.7043C29.8546 29.0648 29.7066 29.2614 29.5226 29.384C29.4337 29.4433 29.3472 29.5077 29.2717 29.5647C29.1926 29.6244 29.1239 29.6777 29.0529 29.7268C28.9116 29.8246 28.7943 29.8864 28.6789 29.9153L28.5441 29.9485L28.4465 30.0461C28.3615 30.1311 28.2009 30.2004 28.0002 30.2004H27.7287C24.6182 29.9058 21.6041 28.835 18.9777 27.0842L18.9699 27.0793L18.5168 26.7805C16.2763 25.2603 14.3845 23.3172 12.9211 21.0305C11.2669 18.4023 10.1939 15.3839 9.79999 12.2668C9.80031 11.8561 9.8074 11.5595 9.87421 11.3586L9.88007 11.3401L9.88495 11.3215C9.95725 11.0323 10.0988 10.8088 10.3537 10.554C10.6755 10.2322 10.8793 10.0461 11.1213 9.9856L11.175 9.97192L11.2238 9.94751C11.5098 9.80455 11.7043 9.80005 12.0998 9.80005ZM12.0998 10.3C12.0097 10.3 11.8912 10.299 11.7678 10.3196C11.6667 10.3364 11.5737 10.3675 11.4777 10.4084C11.3271 10.4268 11.1806 10.4798 11.05 10.5842C10.9313 10.6791 10.8506 10.7968 10.7922 10.9016C10.6906 11.006 10.5677 11.1455 10.4523 11.3762L10.3996 11.4817V12.1262L10.4025 12.1516C10.7105 15.1289 11.7374 18.1086 13.4865 20.6809C15.0238 23.0357 17.0715 25.0822 19.4269 26.6184L19.4308 26.6213C21.9974 28.2638 24.9673 29.2867 27.9318 29.6956L27.966 29.7004H28.0002C28.0903 29.7004 28.2088 29.7015 28.3322 29.6809C28.4681 29.6583 28.5913 29.6134 28.7238 29.5471C28.7601 29.529 28.7906 29.5155 28.8342 29.4963C28.872 29.4797 28.933 29.453 28.9943 29.4163C29.1482 29.3239 29.2598 29.1977 29.3469 29.0237C29.381 28.9553 29.4126 28.9103 29.4406 28.8752C29.471 28.8373 29.5024 28.8046 29.5539 28.7532L29.6105 28.6965L29.6476 28.6233C29.7137 28.4911 29.7578 28.3682 29.7805 28.2327C29.801 28.1092 29.8 27.9898 29.8 27.8997V24.8997C29.7999 24.5005 29.6686 24.0612 29.3537 23.7463C29.1289 23.5216 28.7271 23.223 28.2492 23.2034L28.2502 23.2024C27.3096 23.1083 26.3592 22.8253 25.3537 22.5237C25.1937 22.4571 25.0289 22.4282 24.8996 22.4153C24.8229 22.4076 24.7474 22.4034 24.6789 22.4016L24.5002 22.3997C24.2464 22.3997 24.04 22.5223 23.9348 22.5881C23.7799 22.6849 23.7507 22.7158 23.676 22.7532L23.6037 22.7893L22.2463 24.1467C22.2283 24.1646 22.1788 24.1959 22.1115 24.2063C22.0496 24.2158 22.006 24.2026 21.9777 24.1838L21.9641 24.175L21.9494 24.1672L21.4816 23.886C19.1795 22.4532 17.2292 20.4468 15.8654 18.1038C15.8434 18.023 15.8352 17.9461 15.8439 17.8889C15.8527 17.8321 15.8692 17.821 15.8771 17.8157L15.9182 17.7883L17.3107 16.3958L17.3469 16.3235L17.3488 16.3215V16.3206L17.3498 16.3186V16.3176L17.3517 16.3157V16.3147L17.3527 16.3127V16.3118L17.3547 16.3098V16.3088L17.3557 16.3069V16.3059L17.3576 16.304V16.303L17.3586 16.301V16.3L17.3605 16.2981V16.2971L17.3615 16.2952V16.2942L17.3635 16.2922V16.2913L17.3644 16.2893V16.2883L17.3664 16.2864V16.2854L17.3674 16.2834V16.2825L17.3693 16.2805V16.2795L17.3703 16.2776V16.2766L17.3723 16.2747V16.2737L17.3732 16.2717V16.2708L17.3752 16.2688V16.2678L17.3762 16.2659V16.2649L17.3781 16.2629V16.262L17.3791 16.26V16.259L17.381 16.2571V16.2561L17.382 16.2542V16.2532L17.384 16.2512V16.2502L17.3849 16.2483V16.2473L17.3869 16.2454V16.2444L17.3879 16.2424V16.2415L17.3898 16.2395V16.2385L17.3908 16.2366V16.2356L17.3928 16.2336V16.2327L17.3937 16.2307V16.2297L17.3957 16.2278V16.2268L17.3967 16.2249V16.2239L17.3986 16.2219V16.2209L17.3996 16.219V16.218L17.4016 16.2161V16.2151L17.4025 16.2131V16.2122L17.4045 16.2102V16.2092L17.4055 16.2073V16.2063L17.4074 16.2043V16.2034L17.4084 16.2014V16.2004L17.4103 16.1985V16.1975L17.4113 16.1956V16.1946L17.4133 16.1926V16.1917L17.4142 16.1897V16.1887L17.4162 16.1868V16.1858L17.4172 16.1838V16.1829L17.4191 16.1809V16.1799L17.4201 16.178V16.177L17.4221 16.175V16.1741L17.423 16.1721V16.1711L17.425 16.1692V16.1682L17.426 16.1663V16.1653L17.4279 16.1633V16.1624L17.4289 16.1604V16.1594L17.4308 16.1575V16.1565L17.4318 16.1545V16.1536L17.4338 16.1516V16.1506L17.4348 16.1487V16.1477L17.4367 16.1458V16.1448L17.4377 16.1428V16.1418L17.4396 16.1399V16.1389L17.4406 16.137V16.136L17.4426 16.134V16.1331L17.4435 16.1311V16.1301L17.4455 16.1282V16.1272L17.4465 16.1252V16.1243L17.4484 16.1223V16.1213L17.4494 16.1194V16.1184L17.4514 16.1165V16.1155L17.4523 16.1135V16.1125L17.4543 16.1106V16.1096L17.4553 16.1077V16.1067L17.4572 16.1047V16.1038L17.4582 16.1018V16.1008L17.4601 16.0989V16.0979L17.4611 16.0959V16.095L17.4631 16.093V16.092L17.4641 16.0901V16.0891L17.466 16.0872V16.0862L17.467 16.0842V16.0833L17.4689 16.0813V16.0803L17.4699 16.0784V16.0774L17.4719 16.0754V16.0745L17.4728 16.0725V16.0715L17.4748 16.0696V16.0686L17.4758 16.0667V16.0657L17.4777 16.0637V16.0627L17.4787 16.0608V16.0598L17.4807 16.0579V16.0569L17.4816 16.0549V16.054L17.4836 16.052V16.051L17.4846 16.0491V16.0481L17.4865 16.0461V16.0452L17.4875 16.0432V16.0422L17.4894 16.0403V16.0393L17.4904 16.0374V16.0364L17.4924 16.0344V16.0334L17.4933 16.0315V16.0305L17.4953 16.0286V16.0276L17.4963 16.0256V16.0247L17.4982 16.0227V16.0217L17.4992 16.0198V16.0188L17.5012 16.0168V16.0159L17.5021 16.0139V16.0129L17.5041 16.011V16.01L17.5051 16.0081V16.0071L17.507 16.0051V16.0042L17.508 16.0022V16.0012L17.5099 15.9993V15.9983L17.5109 15.9963V15.9954L17.5129 15.9934V15.9924L17.5139 15.9905V15.9895L17.5158 15.9875V15.9866L17.5168 15.9846V15.9836L17.5187 15.9817V15.9807L17.5197 15.9788V15.9778L17.5217 15.9758V15.9749L17.5226 15.9729V15.9719L17.5246 15.97V15.969L17.5256 15.967V15.9661L17.5275 15.9641V15.9631L17.5285 15.9612V15.9602L17.5305 15.9583V15.9573L17.5314 15.9553V15.9543L17.5334 15.9524V15.9514L17.5344 15.9495V15.9485L17.5363 15.9465V15.9456L17.5373 15.9436V15.9426L17.5392 15.9407V15.9397L17.5402 15.9377V15.9368L17.5422 15.9348V15.9338L17.5432 15.9319V15.9309L17.5451 15.929V15.928L17.5461 15.926V15.925L17.548 15.9231V15.9221L17.549 15.9202V15.9192L17.551 15.9172V15.9163L17.5519 15.9143V15.9133L17.5539 15.9114V15.9104L17.5549 15.9084V15.9075L17.5568 15.9055V15.9045L17.5578 15.9026V15.9016L17.5598 15.8997V15.8987L17.5607 15.8967V15.8958L17.5627 15.8938V15.8928L17.5637 15.8909V15.8899L17.5656 15.8879V15.887L17.5666 15.885V15.884L17.5685 15.8821V15.8811L17.5695 15.8792V15.8782L17.5715 15.8762V15.8752L17.5724 15.8733V15.8723L17.5744 15.8704V15.8694L17.5754 15.8674V15.8665L17.5773 15.8645V15.8635L17.5783 15.8616V15.8606L17.5803 15.8586V15.8577L17.5812 15.8557V15.8547L17.5832 15.8528V15.8518L17.5842 15.8499V15.8489L17.5861 15.8469V15.8459L17.5871 15.844V15.843L17.5891 15.8411V15.8401L17.59 15.8381V15.8372L17.592 15.8352V15.8342L17.593 15.8323V15.8313L17.5949 15.8293V15.8284L17.5959 15.8264V15.8254L17.5978 15.8235V15.8225L17.5988 15.8206V15.8196L17.6008 15.8176V15.8167L17.6017 15.8147V15.8137L17.6037 15.8118V15.8108L17.6047 15.8088V15.8079L17.6066 15.8059V15.8049L17.6076 15.803V15.802L17.6096 15.8V15.7991L17.6105 15.7971V15.7961L17.6125 15.7942V15.7932L17.6135 15.7913V15.7903L17.6154 15.7883V15.7874L17.6164 15.7854V15.7844L17.6183 15.7825V15.7815L17.6193 15.7795V15.7786L17.6213 15.7766V15.7756L17.6223 15.7737V15.7727L17.6242 15.7708V15.7698L17.6252 15.7678V15.7668L17.6271 15.7649V15.7639L17.6281 15.762V15.761L17.6301 15.759V15.7581L17.631 15.7561V15.7551L17.633 15.7532V15.7522L17.634 15.7502V15.7493L17.6359 15.7473V15.7463L17.6369 15.7444V15.7434L17.6389 15.7415V15.7405L17.6398 15.7385V15.7375L17.6418 15.7356V15.7346L17.6428 15.7327V15.7317L17.6447 15.7297V15.7288L17.6457 15.7268V15.7258L17.6476 15.7239L17.7004 15.6184V15.5002C17.7004 15.403 17.7001 15.2533 17.6848 15.0999C17.6709 14.962 17.6394 14.7839 17.5627 14.6145H17.5646C17.1864 13.669 16.9943 12.717 16.8976 11.7502H16.8957C16.8758 11.2728 16.5783 10.8714 16.3537 10.6467L16.2697 10.5627L16.1584 10.5256L15.9289 10.4504C15.6843 10.3737 15.3966 10.3 15.0998 10.3H12.0998Z" fill="#3D3D3D" stroke="#3D3D3D"/>
<path d="M57.3352 26.2216C56.3996 26.2216 55.5966 25.9848 54.9261 25.5114C54.2595 25.0341 53.7462 24.3466 53.3864 23.4489C53.0303 22.5473 52.8523 21.4621 52.8523 20.1932C52.8561 18.9242 53.036 17.8447 53.392 16.9545C53.7519 16.0606 54.2652 15.3788 54.9318 14.9091C55.6023 14.4394 56.4034 14.2045 57.3352 14.2045C58.267 14.2045 59.0682 14.4394 59.7386 14.9091C60.4091 15.3788 60.9223 16.0606 61.2784 16.9545C61.6383 17.8485 61.8182 18.928 61.8182 20.1932C61.8182 21.4659 61.6383 22.553 61.2784 23.4545C60.9223 24.3523 60.4091 25.0379 59.7386 25.5114C59.072 25.9848 58.2708 26.2216 57.3352 26.2216ZM57.3352 24.4432C58.0625 24.4432 58.6364 24.0852 59.0568 23.3693C59.4811 22.6496 59.6932 21.5909 59.6932 20.1932C59.6932 19.2689 59.5966 18.4924 59.4034 17.8636C59.2102 17.2348 58.9375 16.7614 58.5852 16.4432C58.233 16.1212 57.8163 15.9602 57.3352 15.9602C56.6117 15.9602 56.0398 16.3201 55.6193 17.0398C55.1989 17.7557 54.9867 18.8068 54.983 20.1932C54.9792 21.1212 55.072 21.9015 55.2614 22.5341C55.4545 23.1667 55.7273 23.6439 56.0795 23.9659C56.4318 24.2841 56.8504 24.4432 57.3352 24.4432ZM67.8423 26.1591C66.9976 26.1591 66.2476 26.017 65.5923 25.733C64.9408 25.4489 64.4295 25.0606 64.0582 24.5682C63.6908 24.072 63.509 23.5095 63.5128 22.8807C63.509 22.392 63.6151 21.9432 63.831 21.5341C64.0469 21.125 64.3385 20.7841 64.706 20.5114C65.0772 20.2348 65.4901 20.0587 65.9446 19.983V19.9034C65.3461 19.7708 64.8613 19.4659 64.4901 18.9886C64.1226 18.5076 63.9408 17.9527 63.9446 17.3239C63.9408 16.7254 64.1075 16.1913 64.4446 15.7216C64.7817 15.2519 65.2438 14.8826 65.831 14.6136C66.4181 14.3409 67.0885 14.2045 67.8423 14.2045C68.5885 14.2045 69.2533 14.3409 69.8366 14.6136C70.4238 14.8826 70.8859 15.2519 71.223 15.7216C71.5639 16.1913 71.7344 16.7254 71.7344 17.3239C71.7344 17.9527 71.5469 18.5076 71.1719 18.9886C70.8007 19.4659 70.3215 19.7708 69.7344 19.9034V19.983C70.1889 20.0587 70.598 20.2348 70.9616 20.5114C71.3291 20.7841 71.6207 21.125 71.8366 21.5341C72.0563 21.9432 72.1662 22.392 72.1662 22.8807C72.1662 23.5095 71.9806 24.072 71.6094 24.5682C71.2382 25.0606 70.7268 25.4489 70.0753 25.733C69.4276 26.017 68.6832 26.1591 67.8423 26.1591ZM67.8423 24.5341C68.2779 24.5341 68.6567 24.4602 68.9787 24.3125C69.3007 24.161 69.5507 23.9489 69.7287 23.6761C69.9067 23.4034 69.9976 23.089 70.0014 22.733C69.9976 22.3617 69.901 22.0341 69.7116 21.75C69.526 21.4621 69.2704 21.2367 68.9446 21.0739C68.6226 20.911 68.2552 20.8295 67.8423 20.8295C67.4257 20.8295 67.0545 20.911 66.7287 21.0739C66.4029 21.2367 66.1454 21.4621 65.956 21.75C65.7704 22.0341 65.6795 22.3617 65.6832 22.733C65.6795 23.089 65.7666 23.4034 65.9446 23.6761C66.1226 23.9451 66.3726 24.1553 66.6946 24.3068C67.0204 24.4583 67.4029 24.5341 67.8423 24.5341ZM67.8423 19.233C68.1984 19.233 68.5128 19.161 68.7855 19.017C69.062 18.8731 69.2798 18.6723 69.4389 18.4148C69.598 18.1572 69.6795 17.8598 69.6832 17.5227C69.6795 17.1894 69.5999 16.8977 69.4446 16.6477C69.2893 16.3939 69.0734 16.1989 68.7969 16.0625C68.5204 15.9223 68.2022 15.8523 67.8423 15.8523C67.4749 15.8523 67.151 15.9223 66.8707 16.0625C66.5942 16.1989 66.3783 16.3939 66.223 16.6477C66.0715 16.8977 65.9976 17.1894 66.0014 17.5227C65.9976 17.8598 66.0734 18.1572 66.2287 18.4148C66.3878 18.6686 66.6056 18.8693 66.8821 19.017C67.1624 19.161 67.4825 19.233 67.8423 19.233ZM78.3352 26.2216C77.3996 26.2216 76.5966 25.9848 75.9261 25.5114C75.2595 25.0341 74.7462 24.3466 74.3864 23.4489C74.0303 22.5473 73.8523 21.4621 73.8523 20.1932C73.8561 18.9242 74.036 17.8447 74.392 16.9545C74.7519 16.0606 75.2652 15.3788 75.9318 14.9091C76.6023 14.4394 77.4034 14.2045 78.3352 14.2045C79.267 14.2045 80.0682 14.4394 80.7386 14.9091C81.4091 15.3788 81.9223 16.0606 82.2784 16.9545C82.6383 17.8485 82.8182 18.928 82.8182 20.1932C82.8182 21.4659 82.6383 22.553 82.2784 23.4545C81.9223 24.3523 81.4091 25.0379 80.7386 25.5114C80.072 25.9848 79.2708 26.2216 78.3352 26.2216ZM78.3352 24.4432C79.0625 24.4432 79.6364 24.0852 80.0568 23.3693C80.4811 22.6496 80.6932 21.5909 80.6932 20.1932C80.6932 19.2689 80.5966 18.4924 80.4034 17.8636C80.2102 17.2348 79.9375 16.7614 79.5852 16.4432C79.233 16.1212 78.8163 15.9602 78.3352 15.9602C77.6117 15.9602 77.0398 16.3201 76.6193 17.0398C76.1989 17.7557 75.9867 18.8068 75.983 20.1932C75.9792 21.1212 76.072 21.9015 76.2614 22.5341C76.4545 23.1667 76.7273 23.6439 77.0795 23.9659C77.4318 24.2841 77.8504 24.4432 78.3352 24.4432ZM89.0071 26.2216C88.0715 26.2216 87.2685 25.9848 86.598 25.5114C85.9313 25.0341 85.4181 24.3466 85.0582 23.4489C84.7022 22.5473 84.5241 21.4621 84.5241 20.1932C84.5279 18.9242 84.7079 17.8447 85.0639 16.9545C85.4238 16.0606 85.937 15.3788 86.6037 14.9091C87.2741 14.4394 88.0753 14.2045 89.0071 14.2045C89.9389 14.2045 90.7401 14.4394 91.4105 14.9091C92.081 15.3788 92.5942 16.0606 92.9503 16.9545C93.3101 17.8485 93.4901 18.928 93.4901 20.1932C93.4901 21.4659 93.3101 22.553 92.9503 23.4545C92.5942 24.3523 92.081 25.0379 91.4105 25.5114C90.7438 25.9848 89.9427 26.2216 89.0071 26.2216ZM89.0071 24.4432C89.7344 24.4432 90.3082 24.0852 90.7287 23.3693C91.1529 22.6496 91.3651 21.5909 91.3651 20.1932C91.3651 19.2689 91.2685 18.4924 91.0753 17.8636C90.8821 17.2348 90.6094 16.7614 90.2571 16.4432C89.9048 16.1212 89.4882 15.9602 89.0071 15.9602C88.2836 15.9602 87.7116 16.3201 87.2912 17.0398C86.8707 17.7557 86.6586 18.8068 86.6548 20.1932C86.651 21.1212 86.7438 21.9015 86.9332 22.5341C87.1264 23.1667 87.3991 23.6439 87.7514 23.9659C88.1037 24.2841 88.5223 24.4432 89.0071 24.4432ZM99.7727 26L104.722 16.2045V16.125H98.9773V14.3636H106.903V16.1648L101.96 26H99.7727ZM109.476 26L114.425 16.2045V16.125H108.68V14.3636H116.607V16.1648L111.663 26H109.476ZM123.173 14.3636V26H121.065V16.4148H120.997L118.276 18.1534V16.2216L121.168 14.3636H123.173ZM134.142 26.1591C133.384 26.1591 132.706 26.017 132.108 25.733C131.509 25.4451 131.034 25.0511 130.682 24.5511C130.333 24.0511 130.148 23.4792 130.125 22.8352H132.17C132.208 23.3125 132.415 23.7027 132.79 24.0057C133.165 24.3049 133.616 24.4545 134.142 24.4545C134.555 24.4545 134.922 24.3598 135.244 24.1705C135.566 23.9811 135.82 23.7178 136.006 23.3807C136.191 23.0436 136.282 22.6591 136.278 22.2273C136.282 21.7879 136.189 21.3977 136 21.0568C135.811 20.7159 135.551 20.4489 135.222 20.2557C134.892 20.0587 134.513 19.9602 134.085 19.9602C133.737 19.9564 133.394 20.0208 133.057 20.1534C132.72 20.286 132.453 20.4602 132.256 20.6761L130.352 20.3636L130.96 14.3636H137.71V16.125H132.705L132.369 19.2102H132.438C132.653 18.9564 132.958 18.7462 133.352 18.5795C133.746 18.4091 134.178 18.3239 134.648 18.3239C135.352 18.3239 135.981 18.4905 136.534 18.8239C137.087 19.1534 137.523 19.608 137.841 20.1875C138.159 20.767 138.318 21.4299 138.318 22.1761C138.318 22.9451 138.14 23.6307 137.784 24.233C137.432 24.8314 136.941 25.303 136.312 25.6477C135.688 25.9886 134.964 26.1591 134.142 26.1591ZM144.523 26.2216C143.587 26.2216 142.784 25.9848 142.114 25.5114C141.447 25.0341 140.934 24.3466 140.574 23.4489C140.218 22.5473 140.04 21.4621 140.04 20.1932C140.044 18.9242 140.223 17.8447 140.58 16.9545C140.939 16.0606 141.453 15.3788 142.119 14.9091C142.79 14.4394 143.591 14.2045 144.523 14.2045C145.455 14.2045 146.256 14.4394 146.926 14.9091C147.597 15.3788 148.11 16.0606 148.466 16.9545C148.826 17.8485 149.006 18.928 149.006 20.1932C149.006 21.4659 148.826 22.553 148.466 23.4545C148.11 24.3523 147.597 25.0379 146.926 25.5114C146.259 25.9848 145.458 26.2216 144.523 26.2216ZM144.523 24.4432C145.25 24.4432 145.824 24.0852 146.244 23.3693C146.669 22.6496 146.881 21.5909 146.881 20.1932C146.881 19.2689 146.784 18.4924 146.591 17.8636C146.398 17.2348 146.125 16.7614 145.773 16.4432C145.42 16.1212 145.004 15.9602 144.523 15.9602C143.799 15.9602 143.227 16.3201 142.807 17.0398C142.386 17.7557 142.174 18.8068 142.17 20.1932C142.167 21.1212 142.259 21.9015 142.449 22.5341C142.642 23.1667 142.915 23.6439 143.267 23.9659C143.619 24.2841 144.038 24.4432 144.523 24.4432ZM154.939 26.1591C154.181 26.1591 153.503 26.017 152.905 25.733C152.306 25.4451 151.831 25.0511 151.479 24.5511C151.13 24.0511 150.945 23.4792 150.922 22.8352H152.967C153.005 23.3125 153.212 23.7027 153.587 24.0057C153.962 24.3049 154.412 24.4545 154.939 24.4545C155.352 24.4545 155.719 24.3598 156.041 24.1705C156.363 23.9811 156.617 23.7178 156.803 23.3807C156.988 23.0436 157.079 22.6591 157.075 22.2273C157.079 21.7879 156.986 21.3977 156.797 21.0568C156.607 20.7159 156.348 20.4489 156.018 20.2557C155.689 20.0587 155.31 19.9602 154.882 19.9602C154.534 19.9564 154.191 20.0208 153.854 20.1534C153.517 20.286 153.25 20.4602 153.053 20.6761L151.149 20.3636L151.757 14.3636H158.507V16.125H153.501L153.166 19.2102H153.234C153.45 18.9564 153.755 18.7462 154.149 18.5795C154.543 18.4091 154.975 18.3239 155.445 18.3239C156.149 18.3239 156.778 18.4905 157.331 18.8239C157.884 19.1534 158.32 19.608 158.638 20.1875C158.956 20.767 159.115 21.4299 159.115 22.1761C159.115 22.9451 158.937 23.6307 158.581 24.233C158.229 24.8314 157.738 25.303 157.109 25.6477C156.484 25.9886 155.761 26.1591 154.939 26.1591ZM165.064 26.1591C164.306 26.1591 163.628 26.017 163.03 25.733C162.431 25.4451 161.956 25.0511 161.604 24.5511C161.255 24.0511 161.07 23.4792 161.047 22.8352H163.092C163.13 23.3125 163.337 23.7027 163.712 24.0057C164.087 24.3049 164.537 24.4545 165.064 24.4545C165.477 24.4545 165.844 24.3598 166.166 24.1705C166.488 23.9811 166.742 23.7178 166.928 23.3807C167.113 23.0436 167.204 22.6591 167.2 22.2273C167.204 21.7879 167.111 21.3977 166.922 21.0568C166.732 20.7159 166.473 20.4489 166.143 20.2557C165.814 20.0587 165.435 19.9602 165.007 19.9602C164.659 19.9564 164.316 20.0208 163.979 20.1534C163.642 20.286 163.375 20.4602 163.178 20.6761L161.274 20.3636L161.882 14.3636H168.632V16.125H163.626L163.291 19.2102H163.359C163.575 18.9564 163.88 18.7462 164.274 18.5795C164.668 18.4091 165.1 18.3239 165.57 18.3239C166.274 18.3239 166.903 18.4905 167.456 18.8239C168.009 19.1534 168.445 19.608 168.763 20.1875C169.081 20.767 169.24 21.4299 169.24 22.1761C169.24 22.9451 169.062 23.6307 168.706 24.233C168.354 24.8314 167.863 25.303 167.234 25.6477C166.609 25.9886 165.886 26.1591 165.064 26.1591Z" fill="white"/>
</svg>
