<svg width="188" height="40" viewBox="0 0 188 40" fill="none" xmlns="http://www.w3.org/2000/svg">
<rect width="40" height="40" rx="20" fill="#3BCE57"/>
<path d="M20.1667 10.0369C22.7862 10.0379 25.2446 11.0571 27.0935 12.908C28.9421 14.7589 29.9597 17.2194 29.9587 19.8357C29.9568 25.2345 25.5632 29.6275 20.1667 29.6277H20.1619C18.5234 29.6272 16.9131 29.2164 15.4832 28.4363L15.4685 28.4275L15.4519 28.4324L10.3083 29.781L11.6853 24.7556L11.6902 24.738L11.6814 24.7234C10.8245 23.2388 10.3728 21.5539 10.3738 19.8279C10.3762 14.4289 14.7697 10.0369 20.1667 10.0369ZM20.1697 11.613C15.638 11.613 11.9529 15.2986 11.9509 19.8279C11.95 21.3799 12.3845 22.8919 13.2068 24.2L13.3914 24.4939L12.5701 27.4929L12.5515 27.5623L12.6208 27.5437L15.697 26.7361L15.9812 26.905C17.2428 27.6534 18.689 28.05 20.1628 28.0505H20.1667C24.6945 28.0503 28.3797 24.3649 28.3816 19.8347C28.3825 17.64 27.5284 15.5757 25.9773 14.0232C24.5232 12.5674 22.6199 11.7243 20.5798 11.6238L20.1697 11.613ZM16.6843 15.3289C16.8481 15.3289 17.011 15.3297 17.1531 15.3367V15.3376C17.1733 15.3387 17.1947 15.3387 17.2146 15.3386C17.235 15.3385 17.2549 15.3384 17.2751 15.3396C17.3151 15.3419 17.3555 15.3487 17.3962 15.3679C17.4772 15.4063 17.5719 15.4994 17.6697 15.7341C17.7722 15.9799 17.9462 16.4047 18.1023 16.7839C18.2576 17.1611 18.3966 17.496 18.4285 17.5603C18.4872 17.6782 18.5225 17.8068 18.449 17.9539C18.3659 18.1196 18.3276 18.2167 18.2087 18.3552C18.0831 18.5016 17.9514 18.674 17.8425 18.783C17.7823 18.8429 17.7126 18.9134 17.6794 19.0027C17.6449 19.0958 17.6518 19.2033 17.7283 19.3347C17.8723 19.582 18.368 20.3916 19.1033 21.0476C20.0474 21.8893 20.847 22.1522 21.0886 22.2732C21.214 22.336 21.3203 22.3658 21.4167 22.3542C21.515 22.3424 21.596 22.2885 21.6716 22.2019C21.8147 22.0386 22.2875 21.4829 22.4529 21.2341C22.5301 21.118 22.602 21.0766 22.6755 21.0681C22.7537 21.0592 22.8421 21.0853 22.9558 21.1267C23.0659 21.1668 23.422 21.3349 23.7839 21.5095C24.1445 21.6835 24.5078 21.863 24.6306 21.9246C24.7559 21.9873 24.8557 22.0317 24.9343 22.075C25.0124 22.118 25.0594 22.1548 25.0837 22.196L25.0847 22.197C25.0946 22.2138 25.1057 22.2554 25.1111 22.324C25.1162 22.3906 25.1159 22.4771 25.1072 22.5789C25.0896 22.7829 25.0384 23.0463 24.9373 23.3298C24.8397 23.6031 24.5534 23.8715 24.2253 24.0818C23.8983 24.2914 23.5404 24.4363 23.3123 24.4705C22.8924 24.5331 22.364 24.5592 21.7839 24.3748C21.4276 24.2618 20.9708 24.1106 20.3865 23.8582C17.9343 22.7987 16.3311 20.328 16.2058 20.1609C16.1443 20.0788 15.8953 19.7486 15.6619 19.2888C15.4278 18.8277 15.2107 18.2396 15.2107 17.6443C15.2107 16.4528 15.8351 15.8687 16.0603 15.6228C16.2763 15.3871 16.5303 15.3289 16.6843 15.3289Z" fill="white" stroke="white" stroke-width="0.0834177"/>
<path d="M53.1477 26V14.3636H57.5114C58.4053 14.3636 59.1553 14.5303 59.7614 14.8636C60.3712 15.197 60.8314 15.6553 61.142 16.2386C61.4564 16.8182 61.6136 17.4773 61.6136 18.2159C61.6136 18.9621 61.4564 19.625 61.142 20.2045C60.8277 20.7841 60.3636 21.2405 59.75 21.5739C59.1364 21.9034 58.3807 22.0682 57.483 22.0682H54.5909V20.3352H57.1989C57.7216 20.3352 58.1496 20.2443 58.483 20.0625C58.8163 19.8807 59.0625 19.6307 59.2216 19.3125C59.3845 18.9943 59.4659 18.6288 59.4659 18.2159C59.4659 17.803 59.3845 17.4394 59.2216 17.125C59.0625 16.8106 58.8144 16.5663 58.4773 16.392C58.1439 16.214 57.714 16.125 57.1875 16.125H55.2557V26H53.1477ZM63.3537 26V17.2727H65.348V18.7273H65.4389C65.598 18.2235 65.8707 17.8352 66.2571 17.5625C66.6473 17.286 67.0923 17.1477 67.5923 17.1477C67.706 17.1477 67.8329 17.1534 67.973 17.1648C68.117 17.1723 68.2363 17.1856 68.331 17.2045V19.0966C68.2438 19.0663 68.1056 19.0398 67.9162 19.017C67.7306 18.9905 67.5507 18.9773 67.3764 18.9773C67.0014 18.9773 66.6643 19.0587 66.3651 19.2216C66.0696 19.3807 65.8366 19.6023 65.6662 19.8864C65.4957 20.1705 65.4105 20.4981 65.4105 20.8693V26H63.3537ZM73.2017 26.1705C72.3267 26.1705 71.571 25.9886 70.9347 25.625C70.3021 25.2576 69.8153 24.7386 69.4744 24.0682C69.1335 23.3939 68.9631 22.6004 68.9631 21.6875C68.9631 20.7898 69.1335 20.0019 69.4744 19.3239C69.8191 18.642 70.3002 18.1117 70.9176 17.733C71.535 17.3504 72.2604 17.1591 73.0938 17.1591C73.6316 17.1591 74.1392 17.2462 74.6165 17.4205C75.0975 17.5909 75.5218 17.8561 75.8892 18.2159C76.2604 18.5758 76.5521 19.0341 76.7642 19.5909C76.9763 20.1439 77.0824 20.803 77.0824 21.5682V22.1989H69.929V20.8125H75.1108C75.107 20.4186 75.0218 20.0682 74.8551 19.7614C74.6884 19.4508 74.4555 19.2064 74.1562 19.0284C73.8608 18.8504 73.5161 18.7614 73.1222 18.7614C72.7017 18.7614 72.3324 18.8636 72.0142 19.0682C71.696 19.2689 71.4479 19.5341 71.2699 19.8636C71.0956 20.1894 71.0066 20.5473 71.0028 20.9375V22.1477C71.0028 22.6553 71.0956 23.0909 71.2812 23.4545C71.4669 23.8144 71.7263 24.0909 72.0597 24.2841C72.393 24.4735 72.7831 24.5682 73.2301 24.5682C73.5294 24.5682 73.8002 24.5265 74.0426 24.4432C74.285 24.3561 74.4953 24.2292 74.6733 24.0625C74.8513 23.8958 74.9858 23.6894 75.0767 23.4432L76.9972 23.6591C76.8759 24.1667 76.6449 24.6098 76.304 24.9886C75.9669 25.3636 75.535 25.6553 75.0085 25.8636C74.482 26.0682 73.8797 26.1705 73.2017 26.1705ZM82.6293 26.1705C81.758 26.1705 81.0099 25.9792 80.3849 25.5966C79.7637 25.214 79.2846 24.6856 78.9474 24.0114C78.6141 23.3333 78.4474 22.553 78.4474 21.6705C78.4474 20.7841 78.6179 20.0019 78.9588 19.3239C79.2997 18.642 79.7808 18.1117 80.402 17.733C81.027 17.3504 81.7656 17.1591 82.6179 17.1591C83.3262 17.1591 83.9531 17.2898 84.4986 17.5511C85.0478 17.8087 85.4853 18.1742 85.8111 18.6477C86.1368 19.1174 86.3224 19.6667 86.3679 20.2955H84.402C84.3224 19.875 84.133 19.5246 83.8338 19.2443C83.5384 18.9602 83.1425 18.8182 82.6463 18.8182C82.2259 18.8182 81.8565 18.9318 81.5384 19.1591C81.2202 19.3826 80.9721 19.7045 80.794 20.125C80.6198 20.5455 80.5327 21.0492 80.5327 21.6364C80.5327 22.2311 80.6198 22.7424 80.794 23.1705C80.9683 23.5947 81.2126 23.9223 81.527 24.1534C81.8452 24.3807 82.2183 24.4943 82.6463 24.4943C82.9493 24.4943 83.2202 24.4375 83.4588 24.3239C83.7012 24.2064 83.9039 24.0379 84.0668 23.8182C84.2296 23.5985 84.3414 23.3314 84.402 23.017H86.3679C86.3187 23.6345 86.1368 24.1818 85.8224 24.6591C85.508 25.1326 85.08 25.5038 84.5384 25.7727C83.9967 26.0379 83.3603 26.1705 82.6293 26.1705ZM88.0568 26V17.2727H90.1136V26H88.0568ZM89.0909 16.0341C88.7652 16.0341 88.4848 15.9261 88.25 15.7102C88.0152 15.4905 87.8977 15.2273 87.8977 14.9205C87.8977 14.6098 88.0152 14.3466 88.25 14.1307C88.4848 13.911 88.7652 13.8011 89.0909 13.8011C89.4205 13.8011 89.7008 13.911 89.9318 14.1307C90.1667 14.3466 90.2841 14.6098 90.2841 14.9205C90.2841 15.2273 90.1667 15.4905 89.9318 15.7102C89.7008 15.9261 89.4205 16.0341 89.0909 16.0341ZM99.1264 19.5795L97.2514 19.7841C97.1984 19.5947 97.1056 19.4167 96.973 19.25C96.8442 19.0833 96.67 18.9489 96.4503 18.8466C96.2306 18.7443 95.9616 18.6932 95.6435 18.6932C95.2154 18.6932 94.8556 18.786 94.5639 18.9716C94.276 19.1572 94.134 19.3977 94.1378 19.6932C94.134 19.947 94.2268 20.1534 94.4162 20.3125C94.6094 20.4716 94.9276 20.6023 95.3707 20.7045L96.8594 21.0227C97.6851 21.2008 98.2988 21.483 98.7003 21.8693C99.1056 22.2557 99.3101 22.7614 99.3139 23.3864C99.3101 23.9356 99.1491 24.4205 98.831 24.8409C98.5166 25.2576 98.0791 25.5833 97.5185 25.8182C96.9579 26.053 96.3139 26.1705 95.5866 26.1705C94.5185 26.1705 93.6586 25.947 93.0071 25.5C92.3556 25.0492 91.9673 24.4223 91.8423 23.6193L93.848 23.4261C93.9389 23.8201 94.1321 24.1174 94.4276 24.3182C94.723 24.5189 95.1075 24.6193 95.581 24.6193C96.0696 24.6193 96.4616 24.5189 96.7571 24.3182C97.0563 24.1174 97.206 23.8693 97.206 23.5739C97.206 23.3239 97.1094 23.1174 96.9162 22.9545C96.7268 22.7917 96.4313 22.6667 96.0298 22.5795L94.5412 22.267C93.7041 22.0928 93.0848 21.7992 92.6832 21.3864C92.2817 20.9697 92.0829 20.4432 92.0866 19.8068C92.0829 19.2689 92.2287 18.803 92.5241 18.4091C92.8234 18.0114 93.2382 17.7045 93.7685 17.4886C94.3026 17.2689 94.9181 17.1591 95.6151 17.1591C96.6378 17.1591 97.4427 17.3769 98.0298 17.8125C98.6207 18.2481 98.9863 18.8371 99.1264 19.5795ZM103.521 26.1761C102.968 26.1761 102.47 26.0777 102.027 25.8807C101.588 25.6799 101.239 25.3845 100.982 24.9943C100.728 24.6042 100.601 24.1231 100.601 23.5511C100.601 23.0587 100.692 22.6515 100.874 22.3295C101.055 22.0076 101.304 21.75 101.618 21.5568C101.932 21.3636 102.286 21.2178 102.68 21.1193C103.078 21.017 103.489 20.9432 103.913 20.8977C104.425 20.8447 104.839 20.7973 105.158 20.7557C105.476 20.7102 105.707 20.642 105.851 20.5511C105.999 20.4564 106.072 20.3106 106.072 20.1136V20.0795C106.072 19.6515 105.946 19.3201 105.692 19.0852C105.438 18.8504 105.072 18.733 104.595 18.733C104.091 18.733 103.692 18.8428 103.396 19.0625C103.105 19.2822 102.908 19.5417 102.805 19.8409L100.885 19.5682C101.036 19.0379 101.286 18.5947 101.635 18.2386C101.983 17.8788 102.41 17.6098 102.913 17.4318C103.417 17.25 103.974 17.1591 104.584 17.1591C105.004 17.1591 105.423 17.2083 105.839 17.3068C106.256 17.4053 106.637 17.5682 106.982 17.7955C107.326 18.0189 107.603 18.3239 107.811 18.7102C108.023 19.0966 108.129 19.5795 108.129 20.1591V26H106.152V24.8011H106.084C105.959 25.0436 105.783 25.2708 105.555 25.483C105.332 25.6913 105.05 25.8598 104.709 25.9886C104.372 26.1136 103.976 26.1761 103.521 26.1761ZM104.055 24.6648C104.468 24.6648 104.826 24.5833 105.129 24.4205C105.432 24.2538 105.665 24.0341 105.828 23.7614C105.995 23.4886 106.078 23.1913 106.078 22.8693V21.8409C106.014 21.8939 105.904 21.9432 105.749 21.9886C105.597 22.0341 105.427 22.0739 105.237 22.108C105.048 22.142 104.86 22.1723 104.675 22.1989C104.489 22.2254 104.328 22.2481 104.192 22.267C103.885 22.3087 103.61 22.3769 103.368 22.4716C103.125 22.5663 102.934 22.6989 102.794 22.8693C102.654 23.036 102.584 23.2519 102.584 23.517C102.584 23.8958 102.722 24.1818 102.999 24.375C103.275 24.5682 103.627 24.6648 104.055 24.6648ZM117.405 26.1534C116.719 26.1534 116.106 25.9773 115.564 25.625C115.022 25.2727 114.594 24.7614 114.28 24.0909C113.965 23.4205 113.808 22.6061 113.808 21.6477C113.808 20.678 113.967 19.8598 114.286 19.1932C114.607 18.5227 115.041 18.017 115.587 17.6761C116.132 17.3314 116.74 17.1591 117.411 17.1591C117.922 17.1591 118.342 17.2462 118.672 17.4205C119.001 17.5909 119.263 17.7973 119.456 18.0398C119.649 18.2784 119.799 18.5038 119.905 18.7159H119.99V14.3636H122.053V26H120.03V24.625H119.905C119.799 24.8371 119.645 25.0625 119.445 25.3011C119.244 25.536 118.979 25.7367 118.649 25.9034C118.32 26.0701 117.905 26.1534 117.405 26.1534ZM117.979 24.4659C118.414 24.4659 118.786 24.3485 119.092 24.1136C119.399 23.875 119.632 23.5436 119.791 23.1193C119.95 22.6951 120.03 22.2008 120.03 21.6364C120.03 21.072 119.95 20.5814 119.791 20.1648C119.636 19.7481 119.405 19.4242 119.098 19.1932C118.795 18.9621 118.422 18.8466 117.979 18.8466C117.52 18.8466 117.138 18.9659 116.831 19.2045C116.524 19.4432 116.293 19.7727 116.138 20.1932C115.982 20.6136 115.905 21.0947 115.905 21.6364C115.905 22.1818 115.982 22.6686 116.138 23.0966C116.297 23.5208 116.53 23.8561 116.837 24.1023C117.147 24.3447 117.528 24.4659 117.979 24.4659ZM128.108 26.1705C127.233 26.1705 126.477 25.9886 125.841 25.625C125.208 25.2576 124.722 24.7386 124.381 24.0682C124.04 23.3939 123.869 22.6004 123.869 21.6875C123.869 20.7898 124.04 20.0019 124.381 19.3239C124.725 18.642 125.206 18.1117 125.824 17.733C126.441 17.3504 127.167 17.1591 128 17.1591C128.538 17.1591 129.045 17.2462 129.523 17.4205C130.004 17.5909 130.428 17.8561 130.795 18.2159C131.167 18.5758 131.458 19.0341 131.67 19.5909C131.883 20.1439 131.989 20.803 131.989 21.5682V22.1989H124.835V20.8125H130.017C130.013 20.4186 129.928 20.0682 129.761 19.7614C129.595 19.4508 129.362 19.2064 129.062 19.0284C128.767 18.8504 128.422 18.7614 128.028 18.7614C127.608 18.7614 127.239 18.8636 126.92 19.0682C126.602 19.2689 126.354 19.5341 126.176 19.8636C126.002 20.1894 125.913 20.5473 125.909 20.9375V22.1477C125.909 22.6553 126.002 23.0909 126.188 23.4545C126.373 23.8144 126.633 24.0909 126.966 24.2841C127.299 24.4735 127.689 24.5682 128.136 24.5682C128.436 24.5682 128.706 24.5265 128.949 24.4432C129.191 24.3561 129.402 24.2292 129.58 24.0625C129.758 23.8958 129.892 23.6894 129.983 23.4432L131.903 23.6591C131.782 24.1667 131.551 24.6098 131.21 24.9886C130.873 25.3636 130.441 25.6553 129.915 25.8636C129.388 26.0682 128.786 26.1705 128.108 26.1705ZM140.209 26.1761C139.656 26.1761 139.158 26.0777 138.714 25.8807C138.275 25.6799 137.927 25.3845 137.669 24.9943C137.415 24.6042 137.288 24.1231 137.288 23.5511C137.288 23.0587 137.379 22.6515 137.561 22.3295C137.743 22.0076 137.991 21.75 138.305 21.5568C138.62 21.3636 138.974 21.2178 139.368 21.1193C139.766 21.017 140.177 20.9432 140.601 20.8977C141.112 20.8447 141.527 20.7973 141.845 20.7557C142.163 20.7102 142.394 20.642 142.538 20.5511C142.686 20.4564 142.76 20.3106 142.76 20.1136V20.0795C142.76 19.6515 142.633 19.3201 142.379 19.0852C142.125 18.8504 141.76 18.733 141.283 18.733C140.779 18.733 140.379 18.8428 140.084 19.0625C139.792 19.2822 139.595 19.5417 139.493 19.8409L137.572 19.5682C137.724 19.0379 137.974 18.5947 138.322 18.2386C138.671 17.8788 139.097 17.6098 139.601 17.4318C140.105 17.25 140.661 17.1591 141.271 17.1591C141.692 17.1591 142.11 17.2083 142.527 17.3068C142.944 17.4053 143.324 17.5682 143.669 17.7955C144.014 18.0189 144.29 18.3239 144.499 18.7102C144.711 19.0966 144.817 19.5795 144.817 20.1591V26H142.839V24.8011H142.771C142.646 25.0436 142.47 25.2708 142.243 25.483C142.019 25.6913 141.737 25.8598 141.396 25.9886C141.059 26.1136 140.663 26.1761 140.209 26.1761ZM140.743 24.6648C141.156 24.6648 141.514 24.5833 141.817 24.4205C142.12 24.2538 142.353 24.0341 142.516 23.7614C142.682 23.4886 142.766 23.1913 142.766 22.8693V21.8409C142.701 21.8939 142.591 21.9432 142.436 21.9886C142.285 22.0341 142.114 22.0739 141.925 22.108C141.735 22.142 141.548 22.1723 141.362 22.1989C141.177 22.2254 141.016 22.2481 140.879 22.267C140.572 22.3087 140.298 22.3769 140.055 22.4716C139.813 22.5663 139.622 22.6989 139.482 22.8693C139.341 23.036 139.271 23.2519 139.271 23.517C139.271 23.8958 139.41 24.1818 139.686 24.375C139.963 24.5682 140.315 24.6648 140.743 24.6648ZM146.885 17.2727H148.942V26.5C148.942 27.1288 148.822 27.6477 148.584 28.0568C148.345 28.4659 148 28.7708 147.55 28.9716C147.099 29.1723 146.552 29.2727 145.908 29.2727C145.832 29.2727 145.762 29.2708 145.697 29.267C145.633 29.267 145.563 29.2652 145.487 29.2614V27.5852C145.544 27.589 145.595 27.5909 145.641 27.5909C145.686 27.5947 145.733 27.5966 145.783 27.5966C146.177 27.5966 146.459 27.5 146.629 27.3068C146.8 27.1174 146.885 26.839 146.885 26.4716V17.2727ZM147.908 16.0341C147.578 16.0341 147.296 15.9261 147.061 15.7102C146.83 15.4905 146.714 15.2273 146.714 14.9205C146.714 14.6098 146.83 14.3466 147.061 14.1307C147.296 13.911 147.578 13.8011 147.908 13.8011C148.233 13.8011 148.512 13.911 148.743 14.1307C148.978 14.3466 149.095 14.6098 149.095 14.9205C149.095 15.2273 148.978 15.4905 148.743 15.7102C148.512 15.9261 148.233 16.0341 147.908 16.0341ZM156.619 22.3295V17.2727H158.676V26H156.682V24.4489H156.591C156.394 24.9375 156.07 25.3371 155.619 25.6477C155.172 25.9583 154.621 26.1136 153.966 26.1136C153.394 26.1136 152.888 25.9867 152.449 25.733C152.013 25.4754 151.672 25.1023 151.426 24.6136C151.18 24.1212 151.057 23.5265 151.057 22.8295V17.2727H153.114V22.5114C153.114 23.0644 153.265 23.5038 153.568 23.8295C153.871 24.1553 154.269 24.3182 154.761 24.3182C155.064 24.3182 155.358 24.2443 155.642 24.0966C155.926 23.9489 156.159 23.7292 156.341 23.4375C156.527 23.142 156.619 22.7727 156.619 22.3295ZM164.03 26.1534C163.344 26.1534 162.731 25.9773 162.189 25.625C161.647 25.2727 161.219 24.7614 160.905 24.0909C160.59 23.4205 160.433 22.6061 160.433 21.6477C160.433 20.678 160.592 19.8598 160.911 19.1932C161.232 18.5227 161.666 18.017 162.212 17.6761C162.757 17.3314 163.365 17.1591 164.036 17.1591C164.547 17.1591 164.967 17.2462 165.297 17.4205C165.626 17.5909 165.888 17.7973 166.081 18.0398C166.274 18.2784 166.424 18.5038 166.53 18.7159H166.615V14.3636H168.678V26H166.655V24.625H166.53C166.424 24.8371 166.27 25.0625 166.07 25.3011C165.869 25.536 165.604 25.7367 165.274 25.9034C164.945 26.0701 164.53 26.1534 164.03 26.1534ZM164.604 24.4659C165.039 24.4659 165.411 24.3485 165.717 24.1136C166.024 23.875 166.257 23.5436 166.416 23.1193C166.575 22.6951 166.655 22.2008 166.655 21.6364C166.655 21.072 166.575 20.5814 166.416 20.1648C166.261 19.7481 166.03 19.4242 165.723 19.1932C165.42 18.9621 165.047 18.8466 164.604 18.8466C164.145 18.8466 163.763 18.9659 163.456 19.2045C163.149 19.4432 162.918 19.7727 162.763 20.1932C162.607 20.6136 162.53 21.0947 162.53 21.6364C162.53 22.1818 162.607 22.6686 162.763 23.0966C162.922 23.5208 163.155 23.8561 163.462 24.1023C163.772 24.3447 164.153 24.4659 164.604 24.4659ZM173.381 26.1761C172.828 26.1761 172.33 26.0777 171.886 25.8807C171.447 25.6799 171.098 25.3845 170.841 24.9943C170.587 24.6042 170.46 24.1231 170.46 23.5511C170.46 23.0587 170.551 22.6515 170.733 22.3295C170.915 22.0076 171.163 21.75 171.477 21.5568C171.792 21.3636 172.146 21.2178 172.54 21.1193C172.938 21.017 173.348 20.9432 173.773 20.8977C174.284 20.8447 174.699 20.7973 175.017 20.7557C175.335 20.7102 175.566 20.642 175.71 20.5511C175.858 20.4564 175.932 20.3106 175.932 20.1136V20.0795C175.932 19.6515 175.805 19.3201 175.551 19.0852C175.297 18.8504 174.932 18.733 174.455 18.733C173.951 18.733 173.551 18.8428 173.256 19.0625C172.964 19.2822 172.767 19.5417 172.665 19.8409L170.744 19.5682C170.896 19.0379 171.146 18.5947 171.494 18.2386C171.843 17.8788 172.269 17.6098 172.773 17.4318C173.277 17.25 173.833 17.1591 174.443 17.1591C174.864 17.1591 175.282 17.2083 175.699 17.3068C176.116 17.4053 176.496 17.5682 176.841 17.7955C177.186 18.0189 177.462 18.3239 177.67 18.7102C177.883 19.0966 177.989 19.5795 177.989 20.1591V26H176.011V24.8011H175.943C175.818 25.0436 175.642 25.2708 175.415 25.483C175.191 25.6913 174.909 25.8598 174.568 25.9886C174.231 26.1136 173.835 26.1761 173.381 26.1761ZM173.915 24.6648C174.328 24.6648 174.686 24.5833 174.989 24.4205C175.292 24.2538 175.525 24.0341 175.688 23.7614C175.854 23.4886 175.938 23.1913 175.938 22.8693V21.8409C175.873 21.8939 175.763 21.9432 175.608 21.9886C175.456 22.0341 175.286 22.0739 175.097 22.108C174.907 22.142 174.72 22.1723 174.534 22.1989C174.348 22.2254 174.188 22.2481 174.051 22.267C173.744 22.3087 173.47 22.3769 173.227 22.4716C172.985 22.5663 172.794 22.6989 172.653 22.8693C172.513 23.036 172.443 23.2519 172.443 23.517C172.443 23.8958 172.581 24.1818 172.858 24.375C173.134 24.5682 173.487 24.6648 173.915 24.6648ZM182.023 22.5795V22.4318C182.027 21.7462 182.091 21.2008 182.216 20.7955C182.345 20.3902 182.527 20.0644 182.761 19.8182C182.996 19.5682 183.282 19.339 183.619 19.1307C183.85 18.9867 184.057 18.8295 184.239 18.6591C184.424 18.4848 184.57 18.2917 184.676 18.0795C184.782 17.8636 184.835 17.6231 184.835 17.358C184.835 17.0587 184.765 16.7992 184.625 16.5795C184.485 16.3598 184.295 16.1894 184.057 16.0682C183.822 15.947 183.559 15.8864 183.267 15.8864C182.998 15.8864 182.742 15.9451 182.5 16.0625C182.261 16.1761 182.063 16.3504 181.903 16.5852C181.748 16.8163 181.661 17.1098 181.642 17.4659H179.619C179.638 16.7462 179.813 16.1439 180.142 15.6591C180.475 15.1742 180.915 14.8106 181.46 14.5682C182.009 14.3258 182.616 14.2045 183.278 14.2045C184.002 14.2045 184.638 14.3314 185.188 14.5852C185.741 14.839 186.17 15.2008 186.477 15.6705C186.788 16.1364 186.943 16.6894 186.943 17.3295C186.943 17.7614 186.873 18.1477 186.733 18.4886C186.597 18.8295 186.402 19.1326 186.148 19.3977C185.894 19.6629 185.593 19.8996 185.244 20.108C184.938 20.2973 184.686 20.4943 184.489 20.6989C184.295 20.9034 184.152 21.1439 184.057 21.4205C183.966 21.6932 183.919 22.0303 183.915 22.4318V22.5795H182.023ZM183.011 26.125C182.67 26.125 182.377 26.0038 182.131 25.7614C181.884 25.5189 181.761 25.2235 181.761 24.875C181.761 24.5341 181.884 24.2424 182.131 24C182.377 23.7576 182.67 23.6364 183.011 23.6364C183.348 23.6364 183.64 23.7576 183.886 24C184.136 24.2424 184.261 24.5341 184.261 24.875C184.261 25.1061 184.203 25.3163 184.085 25.5057C183.972 25.6951 183.82 25.8466 183.631 25.9602C183.445 26.0701 183.239 26.125 183.011 26.125Z" fill="white"/>
</svg>
